<svg width="37" height="36" viewBox="0 0 37 36" fill="none" xmlns="http://www.w3.org/2000/svg">
<rect x="0.5" width="36" height="36" rx="8" fill="#E0F6C8"/>
<g clip-path="url(#clip0_428_35477)">
<path fill-rule="evenodd" clip-rule="evenodd" d="M12.2482 8.44095C10.835 9.91283 10.0421 12.0071 10.0421 14.4702C10.0421 17.5384 11.2917 20.3044 12.9135 22.5983C14.5341 24.8905 16.4831 26.6486 17.7685 27.6772C18.2364 28.0515 18.8653 28.0515 19.3334 27.677C21.3744 26.0438 24.9805 22.6558 26.4304 18.2648C26.6072 17.7293 27.1846 17.4386 27.7201 17.6154C28.2556 17.7922 28.5463 18.3696 28.3695 18.9051C26.7284 23.8752 22.7327 27.5724 20.6093 29.2715C19.3955 30.2426 17.7067 30.243 16.4927 29.2717C15.1221 28.175 13.0162 26.2809 11.2461 23.7772C9.47712 21.2751 8 18.1017 8 14.4702C8 11.5683 8.93982 8.93807 10.7753 7.02656C12.6176 5.10796 15.2795 4 18.5508 4C21.8287 4 24.4946 5.11242 26.3372 7.03791C26.7271 7.44533 26.7129 8.09169 26.3055 8.48152C25.8981 8.87143 25.2517 8.8572 24.8619 8.4498C23.4553 6.97989 21.3495 6.0421 18.5508 6.0421C15.7577 6.0421 13.6548 6.97624 12.2482 8.44095Z" fill="#64AC76"/>
<path fill-rule="evenodd" clip-rule="evenodd" d="M18.5508 17.614C20.4305 17.614 21.9543 16.0902 21.9543 14.2105C21.9543 12.3308 20.4305 10.807 18.5508 10.807C16.6711 10.807 15.1473 12.3308 15.1473 14.2105C15.1473 16.0902 16.6711 17.614 18.5508 17.614ZM18.5508 19.6561C21.5584 19.6561 23.9964 17.218 23.9964 14.2105C23.9964 11.203 21.5584 8.76489 18.5508 8.76489C15.5433 8.76489 13.1052 11.203 13.1052 14.2105C13.1052 17.218 15.5433 19.6561 18.5508 19.6561Z" fill="#64AC76"/>
<path d="M26.7192 10.807C26.7192 10.2431 27.1764 9.78595 27.7403 9.78595C28.3042 9.78595 28.7613 10.2431 28.7613 10.807V14.8912C28.7613 15.4551 28.3042 15.9122 27.7403 15.9122C27.1764 15.9122 26.7192 15.4551 26.7192 14.8912V10.807Z" fill="#64AC76"/>
<path d="M29.7824 11.828C30.3463 11.828 30.8034 12.2852 30.8034 12.8491C30.8034 13.413 30.3463 13.8701 29.7824 13.8701H25.6982C25.1343 13.8701 24.6771 13.413 24.6771 12.8491C24.6771 12.2852 25.1343 11.828 25.6982 11.828H29.7824Z" fill="#64AC76"/>
</g>
<defs>
<clipPath id="clip0_428_35477">
<rect width="26" height="26" fill="white" transform="translate(6 4)"/>
</clipPath>
</defs>
</svg>
