<svg width="36" height="36" viewBox="0 0 36 36" fill="none" xmlns="http://www.w3.org/2000/svg">
<rect width="36" height="36" rx="8" fill="#C8FBF3"/>
<path d="M8.01367 30C7.45274 30 6.99805 29.5453 6.99805 28.9844C6.99805 23.8882 11.1441 19.7422 16.2402 19.7422H17.7637C18.8066 19.7422 19.8306 19.9148 20.8073 20.2553C21.337 20.44 21.6167 21.0191 21.432 21.5487C21.2474 22.0783 20.6683 22.358 20.1387 22.1733C19.3774 21.908 18.5784 21.7734 17.7637 21.7734H16.2402C12.2641 21.7734 9.0293 25.0083 9.0293 28.9844C9.0293 29.5453 8.5746 30 8.01367 30ZM23.7559 10.8555C23.7559 7.07536 20.6805 4 16.9004 4C13.1203 4 10.0449 7.07536 10.0449 10.8555C10.0449 14.6356 13.1203 17.7109 16.9004 17.7109C20.6805 17.7109 23.7559 14.6356 23.7559 10.8555ZM21.7246 10.8555C21.7246 13.5155 19.5605 15.6797 16.9004 15.6797C14.2403 15.6797 12.0762 13.5155 12.0762 10.8555C12.0762 8.19539 14.2403 6.03125 16.9004 6.03125C19.5605 6.03125 21.7246 8.19539 21.7246 10.8555ZM28.9863 23.9062H25.9395V20.8594C25.9395 20.2984 25.4848 19.8438 24.9238 19.8438C24.3629 19.8438 23.9082 20.2984 23.9082 20.8594V23.9062H20.8613C20.3004 23.9062 19.8457 24.3609 19.8457 24.9219C19.8457 25.4828 20.3004 25.9375 20.8613 25.9375H23.9082V28.9844C23.9082 29.5453 24.3629 30 24.9238 30C25.4848 30 25.9395 29.5453 25.9395 28.9844V25.9375H28.9863C29.5473 25.9375 30.002 25.4828 30.002 24.9219C30.002 24.3609 29.5473 23.9062 28.9863 23.9062Z" fill="#01BAB5"/>
</svg>
