<svg width="24" height="24" viewBox="0 0 24 24" fill="none" xmlns="http://www.w3.org/2000/svg">
<path d="M12 13.7292C11.75 13.7292 11.5382 13.6424 11.3646 13.4688C11.191 13.2952 11.1042 13.0834 11.1042 12.8334C11.1042 12.5834 11.191 12.3715 11.3646 12.1979C11.5382 12.0243 11.75 11.9375 12 11.9375C12.25 11.9375 12.4618 12.0243 12.6355 12.1979C12.8091 12.3715 12.8959 12.5834 12.8959 12.8334C12.8959 13.0834 12.8091 13.2952 12.6355 13.4688C12.4618 13.6424 12.25 13.7292 12 13.7292ZM8.66671 13.7292C8.41671 13.7292 8.2049 13.6424 8.03129 13.4688C7.85768 13.2952 7.77087 13.0834 7.77087 12.8334C7.77087 12.5834 7.85768 12.3715 8.03129 12.1979C8.2049 12.0243 8.41671 11.9375 8.66671 11.9375C8.91671 11.9375 9.12851 12.0243 9.30212 12.1979C9.47573 12.3715 9.56254 12.5834 9.56254 12.8334C9.56254 13.0834 9.47573 13.2952 9.30212 13.4688C9.12851 13.6424 8.91671 13.7292 8.66671 13.7292ZM15.3334 13.7292C15.0834 13.7292 14.8716 13.6424 14.698 13.4688C14.5243 13.2952 14.4375 13.0834 14.4375 12.8334C14.4375 12.5834 14.5243 12.3715 14.698 12.1979C14.8716 12.0243 15.0834 11.9375 15.3334 11.9375C15.5834 11.9375 15.7952 12.0243 15.9688 12.1979C16.1424 12.3715 16.2292 12.5834 16.2292 12.8334C16.2292 13.0834 16.1424 13.2952 15.9688 13.4688C15.7952 13.6424 15.5834 13.7292 15.3334 13.7292ZM12 17.0625C11.75 17.0625 11.5382 16.9757 11.3646 16.8021C11.191 16.6285 11.1042 16.4167 11.1042 16.1667C11.1042 15.9167 11.191 15.7049 11.3646 15.5313C11.5382 15.3577 11.75 15.2709 12 15.2709C12.25 15.2709 12.4618 15.3577 12.6355 15.5313C12.8091 15.7049 12.8959 15.9167 12.8959 16.1667C12.8959 16.4167 12.8091 16.6285 12.6355 16.8021C12.4618 16.9757 12.25 17.0625 12 17.0625ZM8.66671 17.0625C8.41671 17.0625 8.2049 16.9757 8.03129 16.8021C7.85768 16.6285 7.77087 16.4167 7.77087 16.1667C7.77087 15.9167 7.85768 15.7049 8.03129 15.5313C8.2049 15.3577 8.41671 15.2709 8.66671 15.2709C8.91671 15.2709 9.12851 15.3577 9.30212 15.5313C9.47573 15.7049 9.56254 15.9167 9.56254 16.1667C9.56254 16.4167 9.47573 16.6285 9.30212 16.8021C9.12851 16.9757 8.91671 17.0625 8.66671 17.0625ZM15.3334 17.0625C15.0834 17.0625 14.8716 16.9757 14.698 16.8021C14.5243 16.6285 14.4375 16.4167 14.4375 16.1667C14.4375 15.9167 14.5243 15.7049 14.698 15.5313C14.8716 15.3577 15.0834 15.2709 15.3334 15.2709C15.5834 15.2709 15.7952 15.3577 15.9688 15.5313C16.1424 15.7049 16.2292 15.9167 16.2292 16.1667C16.2292 16.4167 16.1424 16.6285 15.9688 16.8021C15.7952 16.9757 15.5834 17.0625 15.3334 17.0625ZM5.85421 20.625C5.40976 20.625 5.02435 20.4618 4.69796 20.1354C4.37157 19.809 4.20837 19.4236 4.20837 18.9792V6.27085C4.20837 5.81252 4.37157 5.42016 4.69796 5.09377C5.02435 4.76738 5.40976 4.60419 5.85421 4.60419H7.10421V3.35419H8.66671V4.60419H15.3334V3.35419H16.8959V4.60419H18.1459C18.6042 4.60419 18.9966 4.76738 19.323 5.09377C19.6493 5.42016 19.8125 5.81252 19.8125 6.27085V18.9792C19.8125 19.4236 19.6493 19.809 19.323 20.1354C18.9966 20.4618 18.6042 20.625 18.1459 20.625H5.85421ZM5.85421 18.9792H18.1459V10.125H5.85421V18.9792Z" fill="#D9AF62"/>
</svg>
