<?xml version="1.0" encoding="UTF-8" standalone="no"?>
<!-- Created with Inkscape (http://www.inkscape.org/) -->

<svg
   version="1.1"
   id="svg2385"
   xml:space="preserve"
   width="682.66669"
   height="682.66669"
   viewBox="0 0 682.66669 682.66669"
   xmlns="http://www.w3.org/2000/svg"
   xmlns:svg="http://www.w3.org/2000/svg"><defs
     id="defs2389"><clipPath
       clipPathUnits="userSpaceOnUse"
       id="clipPath2399"><path
         d="M 0,512 H 512 V 0 H 0 Z"
         id="path2397" /></clipPath></defs><g
     id="g2391"
     transform="matrix(1.3333333,0,0,-1.3333333,0,682.66667)"><g
       id="g2393"><g
         id="g2395"
         clip-path="url(#clipPath2399)"><g
           id="g2401"
           transform="translate(255.9668,7.5)"><path
             d="M 0,0 V 55.47"
             style="fill:none;stroke:#000000;stroke-width:15;stroke-linecap:round;stroke-linejoin:round;stroke-miterlimit:10;stroke-dasharray:none;stroke-opacity:1"
             id="path2403" /></g><g
           id="g2405"
           transform="translate(218.4951,109.7197)"><path
             d="M 0,0 V -102.22"
             style="fill:none;stroke:#000000;stroke-width:15;stroke-linecap:round;stroke-linejoin:round;stroke-miterlimit:10;stroke-dasharray:none;stroke-opacity:1"
             id="path2407" /></g><g
           id="g2409"
           transform="translate(185.0386,7.5)"><path
             d="M 0,0 V 102.22"
             style="fill:none;stroke:#000000;stroke-width:15;stroke-linecap:round;stroke-linejoin:round;stroke-miterlimit:10;stroke-dasharray:none;stroke-opacity:1"
             id="path2411" /></g><g
           id="g2413"
           transform="translate(117.457,91.0117)"><path
             d="M 0,0 V -83.512"
             style="fill:none;stroke:#000000;stroke-width:15;stroke-linecap:round;stroke-linejoin:round;stroke-miterlimit:10;stroke-dasharray:none;stroke-opacity:1"
             id="path2415" /></g><g
           id="g2417"
           transform="translate(359.3242,7.5)"><path
             d="M 0,0 C 20.384,20.292 40.723,40.63 60.997,61.032"
             style="fill:none;stroke:#000000;stroke-width:15;stroke-linecap:round;stroke-linejoin:round;stroke-miterlimit:10;stroke-dasharray:none;stroke-opacity:1"
             id="path2419" /></g><g
           id="g2421"
           transform="translate(383.2725,100.7563)"><path
             d="M 0,0 C -7.147,-7.148 -69.243,-69.3 -93.116,-93.256"
             style="fill:none;stroke:#000000;stroke-width:15;stroke-linecap:round;stroke-linejoin:round;stroke-miterlimit:10;stroke-dasharray:none;stroke-opacity:1"
             id="path2423" /></g><g
           id="g2425"
           transform="translate(234.9443,109.7197)"><path
             d="m 0,0 h -92.229 c -2.417,0 -4.754,-0.874 -6.579,-2.461 l -44.045,-38.31"
             style="fill:none;stroke:#000000;stroke-width:15;stroke-linecap:round;stroke-linejoin:round;stroke-miterlimit:10;stroke-dasharray:none;stroke-opacity:1"
             id="path2427" /></g><g
           id="g2429"
           transform="translate(64.2949,44.7715)"><path
             d="m 0,0 -32.739,-28.477 c -3.498,-3.042 -1.346,-8.794 3.29,-8.794 h 442.241 c 4.637,0 6.788,5.752 3.29,8.794 l -104.58,90.964 c -1.825,1.587 -4.162,2.461 -6.58,2.461 h -92.394"
             style="fill:none;stroke:#000000;stroke-width:15;stroke-linecap:round;stroke-linejoin:round;stroke-miterlimit:10;stroke-dasharray:none;stroke-opacity:1"
             id="path2431" /></g><g
           id="g2433"
           transform="translate(146.7549,402.3354)"><path
             d="m 0,0 c -18.208,-23.304 -29.15,-52.523 -29.34,-84.171 -0.248,-41.019 17.332,-77.933 45.444,-103.454 42.129,-38.248 71.881,-88.205 86.177,-143.281 h 10e-4 c 1.855,-7.148 12.004,-7.148 13.86,0 l 0.001,0.003 c 14.381,55.405 44.81,105.174 86.914,143.952 10.098,9.301 18.804,20.087 25.786,32.005"
             style="fill:none;stroke:#000000;stroke-width:15;stroke-linecap:round;stroke-linejoin:round;stroke-miterlimit:10;stroke-dasharray:none;stroke-opacity:1"
             id="path2435" /></g><g
           id="g2437"
           transform="translate(236.5654,454.4941)"><path
             d="M 0,0 C -21.13,-2.991 -40.766,-10.794 -57.753,-22.256"
             style="fill:none;stroke:#000000;stroke-width:15;stroke-linecap:round;stroke-linejoin:round;stroke-miterlimit:10;stroke-dasharray:none;stroke-opacity:1"
             id="path2439" /></g><g
           id="g2441"
           transform="translate(389.9209,281.8076)"><path
             d="m 0,0 c 2.996,11.332 4.601,23.229 4.601,35.502 0,70.55 -52.732,128.777 -120.93,137.436"
             style="fill:none;stroke:#000000;stroke-width:15;stroke-linecap:round;stroke-linejoin:round;stroke-miterlimit:10;stroke-dasharray:none;stroke-opacity:1"
             id="path2443" /></g><g
           id="g2445"
           transform="translate(319.5122,317.3101)"><path
             d="m 0,0 c 0,-35.095 -28.45,-63.545 -63.545,-63.545 -35.096,0 -63.546,28.45 -63.546,63.545 0,35.095 28.45,63.545 63.546,63.545 C -28.45,63.545 0,35.095 0,0 Z"
             style="fill:none;stroke:#000000;stroke-width:15;stroke-linecap:round;stroke-linejoin:round;stroke-miterlimit:10;stroke-dasharray:none;stroke-opacity:1"
             id="path2447" /></g><g
           id="g2449"
           transform="translate(394.5215,341.3794)"><path
             d="m 0,0 c 37.731,12.766 63.024,30.729 63.024,59.52 0,19.437 -7.55,35.6 -18.876,48.911"
             style="fill:none;stroke:#000000;stroke-width:15;stroke-linecap:round;stroke-linejoin:round;stroke-miterlimit:10;stroke-dasharray:20, 30;stroke-dashoffset:0;stroke-opacity:1"
             id="path2451" /></g><g
           id="g2453"
           transform="translate(420.3198,189.042)"><path
             d="m 0,0 c 0,0 -354.458,-80.651 -354.458,31.888 0,28.292 21.397,47.001 54.188,60.507"
             style="fill:none;stroke:#000000;stroke-width:15;stroke-linecap:round;stroke-linejoin:round;stroke-miterlimit:10;stroke-dasharray:20, 30;stroke-dashoffset:0;stroke-opacity:1"
             id="path2455" /></g><g
           id="g2457"
           transform="translate(429.8828,451.4048)"><path
             d="m 0,0 -8.803,-24.004 c -2.196,-5.987 -10.628,-6.087 -12.966,-0.155 l -26.7,67.756 c -2.223,5.642 3.354,11.219 8.996,8.996 l 67.755,-26.7 c 5.933,-2.339 5.833,-10.77 -0.155,-12.966 L 4.124,4.124 C 2.21,3.422 0.702,1.914 0,0 Z"
             style="fill:none;stroke:#000000;stroke-width:15;stroke-linecap:round;stroke-linejoin:round;stroke-miterlimit:10;stroke-dasharray:none;stroke-opacity:1"
             id="path2459" /></g><g
           id="g2461"
           transform="translate(178.813,426.5244)"><path
             d="m 0,0 c 0,-13.604 -11.028,-24.631 -24.631,-24.631 -13.604,0 -24.632,11.027 -24.632,24.631 0,13.604 11.028,24.632 24.632,24.632 C -11.028,24.632 0,13.604 0,0 Z"
             style="fill:none;stroke:#000000;stroke-width:15;stroke-linecap:round;stroke-linejoin:round;stroke-miterlimit:10;stroke-dasharray:none;stroke-opacity:1"
             id="path2463" /></g><g
           id="g2465"
           transform="translate(482.1772,253.7671)"><path
             d="m 0,0 c 0,-13.604 -11.028,-24.631 -24.631,-24.631 -13.604,0 -24.632,11.027 -24.632,24.631 0,13.604 11.028,24.631 24.632,24.631 C -11.028,24.631 0,13.604 0,0 Z"
             style="fill:none;stroke:#000000;stroke-width:15;stroke-linecap:round;stroke-linejoin:round;stroke-miterlimit:10;stroke-dasharray:none;stroke-opacity:1"
             id="path2467" /></g><g
           id="g2469"
           transform="translate(454.3511,141.5903)"><path
             d="M 0,0 -18.597,-18.597"
             style="fill:none;stroke:#000000;stroke-width:15;stroke-linecap:round;stroke-linejoin:round;stroke-miterlimit:10;stroke-dasharray:none;stroke-opacity:1"
             id="path2471" /></g><g
           id="g2473"
           transform="translate(454.3511,122.9932)"><path
             d="M 0,0 -18.597,18.597"
             style="fill:none;stroke:#000000;stroke-width:15;stroke-linecap:round;stroke-linejoin:round;stroke-miterlimit:10;stroke-dasharray:none;stroke-opacity:1"
             id="path2475" /></g><g
           id="g2477"
           transform="translate(94.6167,421.522)"><path
             d="M 0,0 -25.819,-25.819"
             style="fill:none;stroke:#000000;stroke-width:15;stroke-linecap:round;stroke-linejoin:round;stroke-miterlimit:10;stroke-dasharray:none;stroke-opacity:1"
             id="path2479" /></g><g
           id="g2481"
           transform="translate(94.6167,395.7026)"><path
             d="M 0,0 -25.819,25.819"
             style="fill:none;stroke:#000000;stroke-width:15;stroke-linecap:round;stroke-linejoin:round;stroke-miterlimit:10;stroke-dasharray:none;stroke-opacity:1"
             id="path2483" /></g><g
           id="g2485"
           transform="translate(122.4692,483.9712)"><path
             d="m 0,0 c 0,-11.338 -9.191,-20.529 -20.528,-20.529 -11.338,0 -20.529,9.191 -20.529,20.529 0,11.338 9.191,20.529 20.529,20.529 C -9.191,20.529 0,11.338 0,0 Z"
             style="fill:none;stroke:#000000;stroke-width:15;stroke-linecap:round;stroke-linejoin:round;stroke-miterlimit:10;stroke-dasharray:none;stroke-opacity:1"
             id="path2487" /></g></g></g></g></svg>
