<svg width="36" height="36" viewBox="0 0 36 36" fill="none" xmlns="http://www.w3.org/2000/svg">
<rect width="36" height="36" rx="8" fill="#D7DAFA"/>
<g clip-path="url(#clip0_428_35400)">
<path d="M28.9751 7.12941C28.9751 5.4 27.5751 4 25.8457 4H10.6928C8.96335 4 7.56335 5.4 7.56335 7.12941V27.2235C7.56335 28.9529 8.96335 30.3529 10.6928 30.3529H25.8457C27.5751 30.3529 28.9751 28.9529 28.9751 27.2235V18.7919V7.12941ZM27.3281 27.2235C27.3281 28.0471 26.6692 28.7059 25.8457 28.7059H10.6928C9.86924 28.7059 9.21041 28.0471 9.21041 27.2235V7.12941C9.21041 6.30588 9.86924 5.64706 10.6928 5.64706H25.8457C26.6692 5.64706 27.3281 6.30588 27.3281 7.12941V18.7919V27.2235Z" fill="#858DFD"/>
<path d="M13.2457 18.8235H22.9634C23.2104 18.8235 23.4575 18.7412 23.6222 18.4941C23.7869 18.3294 23.8692 18.0824 23.7869 17.8353C23.4575 15.8588 22.2222 14.2941 20.5751 13.553C21.0692 12.9765 21.3987 12.2353 21.3987 11.3294C21.3987 9.51766 19.9163 8.03531 18.1045 8.03531C16.2928 8.03531 14.8104 9.51766 14.8104 11.3294C14.8104 12.153 15.1398 12.8941 15.6339 13.553C13.9869 14.3765 12.6692 15.9412 12.4222 17.8353C12.4222 18.0824 12.4222 18.3294 12.5869 18.4941C12.7516 18.7412 12.9987 18.8235 13.2457 18.8235ZM16.4575 11.4118C16.4575 10.5059 17.1987 9.76472 18.1045 9.76472C19.0104 9.76472 19.7516 10.5059 19.7516 11.4118C19.7516 12.3177 19.0104 13.0588 18.1045 13.0588C17.1987 13.0588 16.4575 12.3177 16.4575 11.4118ZM18.1045 14.7059C19.7516 14.7059 21.2339 15.6941 21.8928 17.1765H14.3163C14.9751 15.6941 16.4575 14.7059 18.1045 14.7059Z" fill="#858DFD"/>
<path d="M24.8575 21.2941H11.681C11.1869 21.2941 10.8575 21.6235 10.8575 22.1177C10.8575 22.6118 11.1869 22.9412 11.681 22.9412H24.8575C25.3516 22.9412 25.681 22.6118 25.681 22.1177C25.681 21.6235 25.3516 21.2941 24.8575 21.2941Z" fill="#858DFD"/>
<path d="M24.8575 24.5882H11.681C11.1869 24.5882 10.8575 24.9176 10.8575 25.4118C10.8575 25.9059 11.1869 26.2353 11.681 26.2353H24.8575C25.3516 26.2353 25.681 25.9059 25.681 25.4118C25.681 24.9176 25.3516 24.5882 24.8575 24.5882Z" fill="#858DFD"/>
</g>
<defs>
<clipPath id="clip0_428_35400">
<rect width="22" height="27" fill="white" transform="translate(7.5 4)"/>
</clipPath>
</defs>
</svg>
