<svg width="32" height="32" viewBox="0 0 32 32" fill="none" xmlns="http://www.w3.org/2000/svg">
<defs>
<linearGradient id="paint0_linear_415_31508" x1="6.5" y1="16" x2="25.5" y2="16" gradientUnits="userSpaceOnUse">
<stop stop-color="#00CAAD"/>
<stop offset="1" stop-color="#02ADBC"/>
</linearGradient>
</defs>
<path d="M18.2344 6.8223C17.0016 5.7259 14.997 5.7259 13.7663 6.8223L7.46091 12.4341C6.85013 12.9773 6.5 13.7347 6.5 14.5123V23.0939C6.5 24.6963 7.93325 25.9999 9.69461 25.9999H13.1843C13.7658 25.9999 13.625 26 14.2372 26H14.1C14.575 26 14.8907 26 15.8628 26C16.835 26 16.8764 26 17.6257 26C18.375 26 18.2342 26 18.8157 26H22.3059C24.0673 26 25.5 24.6964 25.5 23.094V14.5124C25.5 13.7349 25.1499 12.9774 24.5396 12.4343L18.2344 6.8223Z" fill="url(#paint0_linear_415_31508)"/>
</svg>
