<svg width="24" height="24" viewBox="0 0 24 24" fill="none" xmlns="http://www.w3.org/2000/svg">
<path fill-rule="evenodd" clip-rule="evenodd" d="M11.8262 4.1532L5.28077 9.24411C5.10362 9.38189 5 9.59375 5 9.81818V17.8182C5 19.0232 5.97683 20 7.18182 20H17.3636C18.5686 20 19.5455 19.0232 19.5455 17.8182V9.81818C19.5455 9.59375 19.4418 9.38189 19.2647 9.24411L12.7192 4.1532C12.4566 3.94893 12.0889 3.94893 11.8262 4.1532ZM9.36364 18.5455V12C9.36364 11.5983 9.68925 11.2727 10.0909 11.2727H14.4545C14.8562 11.2727 15.1818 11.5983 15.1818 12V18.5455H17.3636C17.7653 18.5455 18.0909 18.2198 18.0909 17.8182V10.1739L12.2727 5.64863L6.45455 10.1739V17.8182C6.45455 18.2198 6.78016 18.5455 7.18182 18.5455H9.36364ZM13.7273 18.5455V12.7273H10.8182V18.5455H13.7273Z" fill="#8C8C8C"/>
<path d="M5.28077 9.24411L5.18868 9.1257H5.18868L5.28077 9.24411ZM11.8262 4.1532L11.9183 4.2716V4.2716L11.8262 4.1532ZM19.2647 9.24411L19.3568 9.1257L19.2647 9.24411ZM12.7192 4.1532L12.6271 4.2716V4.2716L12.7192 4.1532ZM9.36364 18.5455V18.6955H9.51364V18.5455H9.36364ZM15.1818 18.5455H15.0318V18.6955H15.1818V18.5455ZM18.0909 10.1739H18.2409V10.1005L18.183 10.0555L18.0909 10.1739ZM12.2727 5.64863L12.3648 5.53022L12.2727 5.4586L12.1806 5.53022L12.2727 5.64863ZM6.45455 10.1739L6.36245 10.0555L6.30455 10.1005V10.1739H6.45455ZM13.7273 12.7273H13.8773V12.5773H13.7273V12.7273ZM13.7273 18.5455V18.6955H13.8773V18.5455H13.7273ZM10.8182 12.7273V12.5773H10.6682V12.7273H10.8182ZM10.8182 18.5455H10.6682V18.6955H10.8182V18.5455ZM5.37286 9.36251L11.9183 4.2716L11.7341 4.0348L5.18868 9.1257L5.37286 9.36251ZM5.15 9.81818C5.15 9.64004 5.23225 9.47188 5.37286 9.36251L5.18868 9.1257C4.97499 9.29191 4.85 9.54746 4.85 9.81818H5.15ZM5.15 17.8182V9.81818H4.85V17.8182H5.15ZM7.18182 19.85C6.05968 19.85 5.15 18.9403 5.15 17.8182H4.85C4.85 19.106 5.89399 20.15 7.18182 20.15V19.85ZM17.3636 19.85H7.18182V20.15H17.3636V19.85ZM19.3955 17.8182C19.3955 18.9403 18.4858 19.85 17.3636 19.85V20.15C18.6515 20.15 19.6955 19.106 19.6955 17.8182H19.3955ZM19.3955 9.81818V17.8182H19.6955V9.81818H19.3955ZM19.1726 9.36251C19.3132 9.47188 19.3955 9.64004 19.3955 9.81818H19.6955C19.6955 9.54746 19.5705 9.29191 19.3568 9.1257L19.1726 9.36251ZM12.6271 4.2716L19.1726 9.36251L19.3568 9.1257L12.8113 4.0348L12.6271 4.2716ZM11.9183 4.2716C12.1268 4.10947 12.4187 4.10947 12.6271 4.2716L12.8113 4.0348C12.4945 3.7884 12.0509 3.7884 11.7341 4.0348L11.9183 4.2716ZM9.21364 12V18.5455H9.51364V12H9.21364ZM10.0909 11.1227C9.6064 11.1227 9.21364 11.5155 9.21364 12H9.51364C9.51364 11.6812 9.77209 11.4227 10.0909 11.4227V11.1227ZM14.4545 11.1227H10.0909V11.4227H14.4545V11.1227ZM15.3318 12C15.3318 11.5155 14.939 11.1227 14.4545 11.1227V11.4227C14.7734 11.4227 15.0318 11.6812 15.0318 12H15.3318ZM15.3318 18.5455V12H15.0318V18.5455H15.3318ZM17.3636 18.3955H15.1818V18.6955H17.3636V18.3955ZM17.9409 17.8182C17.9409 18.137 17.6825 18.3955 17.3636 18.3955V18.6955C17.8481 18.6955 18.2409 18.3027 18.2409 17.8182H17.9409ZM17.9409 10.1739V17.8182H18.2409V10.1739H17.9409ZM12.1806 5.76703L17.9988 10.2923L18.183 10.0555L12.3648 5.53022L12.1806 5.76703ZM6.54664 10.2923L12.3648 5.76703L12.1806 5.53022L6.36245 10.0555L6.54664 10.2923ZM6.60455 17.8182V10.1739H6.30455V17.8182H6.60455ZM7.18182 18.3955C6.863 18.3955 6.60455 18.137 6.60455 17.8182H6.30455C6.30455 18.3027 6.69731 18.6955 7.18182 18.6955V18.3955ZM9.36364 18.3955H7.18182V18.6955H9.36364V18.3955ZM13.5773 12.7273V18.5455H13.8773V12.7273H13.5773ZM10.8182 12.8773H13.7273V12.5773H10.8182V12.8773ZM10.9682 18.5455V12.7273H10.6682V18.5455H10.9682ZM13.7273 18.3955H10.8182V18.6955H13.7273V18.3955Z" fill="#8C8C8C"/>
</svg>
