<svg width="32" height="32" viewBox="0 0 32 32" fill="none" xmlns="http://www.w3.org/2000/svg">
<path d="M18.2344 6.8223C17.0016 5.7259 14.997 5.7259 13.7663 6.8223L7.46091 12.4341C6.85013 12.9773 6.5 13.7347 6.5 14.5123V23.0939C6.5 24.6963 7.93325 25.9999 9.69461 25.9999H13.1843C13.7658 25.9999 13.625 26 14.2372 26H14.1C14.575 26 14.8907 26 15.8628 26C16.835 26 16.8764 26 17.6257 26C18.375 26 18.2342 26 18.8157 26H22.3059C24.0673 26 25.5 24.6964 25.5 23.094V14.5124C25.5 13.7349 25.1499 12.9774 24.5396 12.4343L18.2344 6.8223ZM23.3943 23.0939C23.3943 23.5931 22.9059 23.9995 22.3059 23.9995H19.8686C17.425 23.9995 18.133 23.9995 16 23.9995C13.867 23.9995 14.3784 23.9995 12.1315 23.9995H9.69461C9.0941 23.9995 8.60581 23.5931 8.60581 23.0939V14.5123C8.60581 14.2828 8.71017 14.0634 8.90038 13.8944L15.2058 8.28267C15.6366 7.89982 16.3641 7.89879 16.7949 8.28267L23.1003 13.8944C23.29 14.0629 23.3943 14.2821 23.3943 14.5123V23.0939Z" fill="#0097B2"/>
</svg>
