<svg width="36" height="36" viewBox="0 0 36 36" fill="none" xmlns="http://www.w3.org/2000/svg">
<rect width="36" height="36" rx="8" fill="#FBE5D8"/>
<g clip-path="url(#clip0_428_35394)">
<mask id="mask0_428_35394" style="mask-type:luminance" maskUnits="userSpaceOnUse" x="4" y="4" width="27" height="26">
<path d="M4.5 4H30.5V30H4.5V4Z" fill="white"/>
</mask>
<g mask="url(#mask0_428_35394)">
<path d="M11.2166 9.63334C11.2166 7.73997 12.7899 6.16667 14.6833 6.16667C16.1842 6.16667 17.4839 7.1553 17.9583 8.50828C18.635 8.27586 19.3569 8.14069 20.1073 8.11942C19.4391 5.75448 17.2496 4 14.6833 4C11.5933 4 9.04995 6.54335 9.04995 9.63334C9.04995 11.2503 9.74645 12.7177 10.8533 13.7491C7.14337 15.2769 4.5 18.9444 4.5 23.1749C4.5 23.7731 4.98502 24.2582 5.58333 24.2582C6.18164 24.2582 6.66667 23.7731 6.66667 23.1749C6.66667 19.3455 9.43624 16.0906 13.0585 15.3272C13.064 14.4701 13.2181 13.6482 13.4964 12.886C12.1752 12.3941 11.2166 11.1112 11.2166 9.63334Z" fill="#F3AA7F"/>
<path d="M28.3333 5.08327C28.3333 4.48496 27.8483 3.99994 27.25 3.99994C26.6517 3.99994 26.1667 4.48496 26.1667 5.08327V6.16661H25.0833C24.485 6.16661 24 6.65163 24 7.24994C24 7.84824 24.485 8.33327 25.0833 8.33327H26.1667V9.41661C26.1667 10.0149 26.6517 10.4999 27.25 10.4999C27.8483 10.4999 28.3333 10.0149 28.3333 9.41661V8.33327H29.4167C30.015 8.33327 30.5 7.84824 30.5 7.24994C30.5 6.65163 30.015 6.16661 29.4167 6.16661H28.3333V5.08327Z" fill="#F3AA7F"/>
<path fill-rule="evenodd" clip-rule="evenodd" d="M24.0761 19.4623C25.2264 18.4309 25.95 16.9334 25.95 15.2668C25.95 12.1556 23.4279 9.63348 20.3167 9.63348C17.2056 9.63348 14.6834 12.1556 14.6834 15.2668C14.6834 16.9334 15.407 18.4309 16.5573 19.4622C12.8103 20.9724 10.1333 24.6595 10.1333 28.9167C10.1333 29.515 10.6183 30 11.2166 30C11.8149 30 12.3 29.515 12.3 28.9167C12.3 24.5407 15.9168 20.9149 20.2899 20.9001H20.3167H20.3434C24.7164 20.9149 28.3334 24.5407 28.3334 28.9167C28.3334 29.515 28.8184 30 29.4167 30C30.015 30 30.5 29.515 30.5 28.9167C30.5 24.6595 27.8231 20.9724 24.0761 19.4623ZM20.3167 11.8002C18.4021 11.8002 16.85 13.3522 16.85 15.2668C16.85 17.1735 18.3893 18.7207 20.293 18.7335L20.3167 18.7333C20.3246 18.7333 20.3325 18.7333 20.3404 18.7335C22.244 18.7207 23.7834 17.1736 23.7834 15.2668C23.7834 13.3522 22.2313 11.8002 20.3167 11.8002Z" fill="#F3AA7F"/>
</g>
</g>
<defs>
<clipPath id="clip0_428_35394">
<rect width="26" height="26" fill="white" transform="translate(4.5 4)"/>
</clipPath>
</defs>
</svg>
