<svg xmlns="http://www.w3.org/2000/svg" xmlns:xlink="http://www.w3.org/1999/xlink" width="89" zoomAndPan="magnify" viewBox="0 0 66.75 30.000001" height="40" preserveAspectRatio="xMidYMid meet" version="1.0"><defs><g/></defs><g fill="#0097b2" fill-opacity="1"><g transform="translate(1.104617, 20.668062)"><g><path d="M 2.515625 -12.109375 C 3.484375 -12.109375 4.414062 -11.925781 5.3125 -11.5625 C 6.207031 -11.195312 7.03125 -10.660156 7.78125 -9.953125 C 8.175781 -9.566406 8.539062 -9.132812 8.875 -8.65625 C 9.207031 -8.175781 9.484375 -7.6875 9.703125 -7.1875 C 9.929688 -6.6875 10.097656 -6.175781 10.203125 -5.65625 C 10.304688 -5.144531 10.351562 -4.648438 10.34375 -4.171875 C 10.28125 -3.148438 10.019531 -2.285156 9.5625 -1.578125 C 9.113281 -0.878906 8.5 -0.398438 7.71875 -0.140625 C 7.289062 0.00390625 6.832031 0.0546875 6.34375 0.015625 C 5.863281 -0.0234375 5.378906 -0.148438 4.890625 -0.359375 C 4.617188 -0.492188 4.34375 -0.648438 4.0625 -0.828125 C 3.789062 -1.015625 3.519531 -1.234375 3.25 -1.484375 C 3.25 1.242188 3.195312 3.78125 3.09375 6.125 C 3.0625 6.445312 2.925781 6.722656 2.6875 6.953125 C 2.445312 7.179688 2.15625 7.285156 1.8125 7.265625 C 1.488281 7.242188 1.210938 7.113281 0.984375 6.875 C 0.765625 6.632812 0.660156 6.34375 0.671875 6 C 0.785156 3.632812 0.84375 1.070312 0.84375 -1.6875 C 0.84375 -4.457031 0.78125 -7.503906 0.65625 -10.828125 C 0.632812 -11.148438 0.726562 -11.425781 0.9375 -11.65625 C 1.15625 -11.894531 1.425781 -12.03125 1.75 -12.0625 C 1.875 -12.070312 2 -12.082031 2.125 -12.09375 C 2.257812 -12.101562 2.390625 -12.109375 2.515625 -12.109375 Z M 3.25 -4.484375 C 3.601562 -4.484375 3.910156 -4.328125 4.171875 -4.015625 C 4.765625 -3.296875 5.3125 -2.832031 5.8125 -2.625 C 6.3125 -2.425781 6.695312 -2.367188 6.96875 -2.453125 C 7.25 -2.523438 7.46875 -2.726562 7.625 -3.0625 C 7.789062 -3.394531 7.890625 -3.800781 7.921875 -4.28125 C 7.953125 -4.894531 7.796875 -5.566406 7.453125 -6.296875 C 7.117188 -7.023438 6.671875 -7.660156 6.109375 -8.203125 C 5.785156 -8.515625 5.375 -8.8125 4.875 -9.09375 C 4.382812 -9.375 3.800781 -9.554688 3.125 -9.640625 C 3.15625 -8.734375 3.175781 -7.851562 3.1875 -7 C 3.207031 -6.144531 3.226562 -5.304688 3.25 -4.484375 Z M 3.25 -4.484375 "/></g></g></g><g fill="#0097b2" fill-opacity="1"><g transform="translate(11.636654, 20.668062)"><g><path d="M 1.859375 0.03125 L 1.8125 0.03125 C 1.488281 0.0078125 1.207031 -0.117188 0.96875 -0.359375 C 0.738281 -0.609375 0.632812 -0.894531 0.65625 -1.21875 L 0.75 -4.9375 C 0.78125 -5.90625 0.8125 -6.863281 0.84375 -7.8125 C 0.875 -8.769531 0.890625 -9.789062 0.890625 -10.875 C 0.910156 -11.21875 1.035156 -11.503906 1.265625 -11.734375 C 1.503906 -11.960938 1.789062 -12.078125 2.125 -12.078125 C 2.46875 -12.078125 2.753906 -11.957031 2.984375 -11.71875 C 3.222656 -11.476562 3.332031 -11.195312 3.3125 -10.875 L 3.3125 -10.796875 C 3.78125 -11.316406 4.25 -11.660156 4.71875 -11.828125 C 5.1875 -11.992188 5.613281 -12.078125 6 -12.078125 C 7.007812 -12.078125 7.851562 -11.691406 8.53125 -10.921875 C 9.070312 -10.222656 9.46875 -9.226562 9.71875 -7.9375 C 9.78125 -7.613281 9.710938 -7.316406 9.515625 -7.046875 C 9.328125 -6.773438 9.070312 -6.609375 8.75 -6.546875 C 8.707031 -6.546875 8.664062 -6.539062 8.625 -6.53125 C 8.59375 -6.519531 8.5625 -6.515625 8.53125 -6.515625 C 8.238281 -6.515625 7.976562 -6.609375 7.75 -6.796875 C 7.519531 -6.984375 7.382812 -7.226562 7.34375 -7.53125 C 7.238281 -8.0625 7.125 -8.46875 7 -8.75 C 6.875 -9.03125 6.757812 -9.238281 6.65625 -9.375 C 6.476562 -9.5625 6.257812 -9.65625 6 -9.65625 C 5.8125 -9.65625 5.628906 -9.585938 5.453125 -9.453125 C 5.273438 -9.316406 5.113281 -9.148438 4.96875 -8.953125 C 4.820312 -8.765625 4.6875 -8.554688 4.5625 -8.328125 C 4.445312 -8.109375 4.351562 -7.90625 4.28125 -7.71875 C 3.957031 -6.945312 3.695312 -6.003906 3.5 -4.890625 C 3.300781 -3.773438 3.160156 -2.515625 3.078125 -1.109375 C 3.046875 -0.785156 2.914062 -0.515625 2.6875 -0.296875 C 2.457031 -0.078125 2.179688 0.03125 1.859375 0.03125 Z M 1.859375 0.03125 "/></g></g></g><g fill="#0097b2" fill-opacity="1"><g transform="translate(21.539192, 20.668062)"><g><path d="M 5.40625 0.09375 C 5.289062 0.09375 5.207031 0.0859375 5.15625 0.078125 C 4.414062 0.046875 3.753906 -0.148438 3.171875 -0.515625 C 2.609375 -0.835938 2.132812 -1.269531 1.75 -1.8125 C 1.050781 -2.8125 0.6875 -4.023438 0.65625 -5.453125 C 0.632812 -6.222656 0.726562 -6.96875 0.9375 -7.6875 C 1.15625 -8.40625 1.460938 -9.0625 1.859375 -9.65625 C 2.316406 -10.300781 2.867188 -10.835938 3.515625 -11.265625 C 3.878906 -11.472656 4.253906 -11.640625 4.640625 -11.765625 C 5.035156 -11.898438 5.453125 -11.984375 5.890625 -12.015625 C 6.222656 -12.046875 6.515625 -11.953125 6.765625 -11.734375 C 7.015625 -11.515625 7.15625 -11.238281 7.1875 -10.90625 C 7.21875 -10.5 7.09375 -10.164062 6.8125 -9.90625 C 7.03125 -9.988281 7.269531 -9.988281 7.53125 -9.90625 C 8.125 -9.695312 8.625 -9.398438 9.03125 -9.015625 C 9.414062 -8.609375 9.722656 -8.15625 9.953125 -7.65625 C 10.359375 -6.695312 10.445312 -5.644531 10.21875 -4.5 C 10.101562 -3.882812 9.910156 -3.304688 9.640625 -2.765625 C 9.378906 -2.234375 9.046875 -1.753906 8.640625 -1.328125 C 8.171875 -0.859375 7.664062 -0.503906 7.125 -0.265625 C 6.550781 -0.0234375 5.976562 0.09375 5.40625 0.09375 Z M 6.078125 -9.59375 C 5.546875 -9.539062 5.085938 -9.382812 4.703125 -9.125 C 4.328125 -8.875 4.019531 -8.550781 3.78125 -8.15625 C 3.539062 -7.769531 3.363281 -7.34375 3.25 -6.875 C 3.132812 -6.40625 3.078125 -5.9375 3.078125 -5.46875 C 3.078125 -5.03125 3.132812 -4.613281 3.25 -4.21875 C 3.363281 -3.832031 3.523438 -3.5 3.734375 -3.21875 C 4.117188 -2.664062 4.632812 -2.367188 5.28125 -2.328125 L 5.375 -2.328125 C 5.695312 -2.328125 5.992188 -2.398438 6.265625 -2.546875 C 6.546875 -2.703125 6.796875 -2.898438 7.015625 -3.140625 C 7.234375 -3.390625 7.410156 -3.671875 7.546875 -3.984375 C 7.679688 -4.296875 7.78125 -4.625 7.84375 -4.96875 C 7.976562 -5.613281 7.9375 -6.191406 7.71875 -6.703125 C 7.53125 -7.160156 7.21875 -7.460938 6.78125 -7.609375 C 6.457031 -7.703125 6.21875 -7.894531 6.0625 -8.1875 C 5.914062 -8.488281 5.894531 -8.800781 6 -9.125 C 6.039062 -9.207031 6.082031 -9.289062 6.125 -9.375 C 6.175781 -9.46875 6.242188 -9.546875 6.328125 -9.609375 C 6.210938 -9.609375 6.128906 -9.601562 6.078125 -9.59375 Z M 6.078125 -9.59375 "/></g></g></g><g fill="#0097b2" fill-opacity="1"><g transform="translate(32.507038, 20.668062)"><g><path d="M 9.203125 -7.234375 C 9.523438 -7.191406 9.785156 -7.03125 9.984375 -6.75 C 10.191406 -6.476562 10.269531 -6.179688 10.21875 -5.859375 C 9.976562 -4.148438 9.488281 -2.769531 8.75 -1.71875 C 8.375 -1.1875 7.941406 -0.78125 7.453125 -0.5 C 6.972656 -0.21875 6.472656 -0.0625 5.953125 -0.03125 L 5.859375 -0.03125 C 5.003906 -0.03125 4.269531 -0.351562 3.65625 -1 C 3.070312 -1.570312 2.671875 -2.367188 2.453125 -3.390625 C 2.203125 -4.503906 2.035156 -5.722656 1.953125 -7.046875 C 1.878906 -8.367188 1.847656 -9.691406 1.859375 -11.015625 L 1.765625 -11.015625 C 1.460938 -11.015625 1.191406 -11.109375 0.953125 -11.296875 C 0.722656 -11.492188 0.59375 -11.753906 0.5625 -12.078125 C 0.53125 -12.398438 0.613281 -12.695312 0.8125 -12.96875 C 1.007812 -13.238281 1.269531 -13.390625 1.59375 -13.421875 L 1.890625 -13.46875 L 1.96875 -15.53125 C 2.007812 -16.5625 2.03125 -17.445312 2.03125 -18.1875 C 2.03125 -18.53125 2.144531 -18.816406 2.375 -19.046875 C 2.613281 -19.285156 2.90625 -19.40625 3.25 -19.40625 C 3.570312 -19.40625 3.851562 -19.285156 4.09375 -19.046875 C 4.332031 -18.816406 4.453125 -18.53125 4.453125 -18.1875 C 4.453125 -17.8125 4.441406 -17.394531 4.421875 -16.9375 C 4.410156 -16.476562 4.398438 -15.972656 4.390625 -15.421875 C 4.367188 -15.148438 4.351562 -14.875 4.34375 -14.59375 C 4.332031 -14.320312 4.328125 -14.050781 4.328125 -13.78125 L 9.03125 -14.359375 C 9.351562 -14.410156 9.644531 -14.332031 9.90625 -14.125 C 10.175781 -13.914062 10.335938 -13.648438 10.390625 -13.328125 C 10.421875 -12.984375 10.332031 -12.675781 10.125 -12.40625 C 9.925781 -12.144531 9.664062 -12 9.34375 -11.96875 L 4.28125 -11.328125 C 4.269531 -10.023438 4.300781 -8.726562 4.375 -7.4375 C 4.445312 -6.144531 4.59375 -4.96875 4.8125 -3.90625 C 4.925781 -3.414062 5.082031 -3.050781 5.28125 -2.8125 C 5.488281 -2.570312 5.679688 -2.453125 5.859375 -2.453125 C 6.003906 -2.453125 6.171875 -2.519531 6.359375 -2.65625 C 6.546875 -2.800781 6.726562 -3.023438 6.90625 -3.328125 C 7.09375 -3.628906 7.265625 -4.015625 7.421875 -4.484375 C 7.585938 -4.960938 7.722656 -5.539062 7.828125 -6.21875 C 7.867188 -6.539062 8.023438 -6.800781 8.296875 -7 C 8.578125 -7.207031 8.878906 -7.285156 9.203125 -7.234375 Z M 9.203125 -7.234375 "/></g></g></g><g fill="#0097b2" fill-opacity="1"><g transform="translate(43.184345, 20.668062)"><g><path d="M 6.03125 0.09375 C 5.851562 0.09375 5.675781 0.0820312 5.5 0.0625 C 5.332031 0.0507812 5.160156 0.03125 4.984375 0 C 3.765625 -0.257812 2.757812 -0.84375 1.96875 -1.75 C 1.125 -2.726562 0.675781 -3.96875 0.625 -5.46875 L 0.625 -5.640625 C 0.625 -6.222656 0.671875 -6.753906 0.765625 -7.234375 C 0.867188 -7.722656 1 -8.148438 1.15625 -8.515625 C 1.320312 -8.890625 1.5 -9.222656 1.6875 -9.515625 C 1.875 -9.804688 2.0625 -10.050781 2.25 -10.25 C 2.71875 -10.757812 3.253906 -11.164062 3.859375 -11.46875 C 4.460938 -11.78125 5.101562 -11.960938 5.78125 -12.015625 C 6.789062 -12.097656 7.679688 -11.867188 8.453125 -11.328125 C 8.867188 -11.046875 9.207031 -10.6875 9.46875 -10.25 C 9.726562 -9.820312 9.898438 -9.351562 9.984375 -8.84375 C 10.054688 -8.226562 9.945312 -7.625 9.65625 -7.03125 C 9.53125 -6.71875 9.363281 -6.421875 9.15625 -6.140625 C 8.957031 -5.859375 8.722656 -5.601562 8.453125 -5.375 C 8.253906 -5.195312 8 -5.015625 7.6875 -4.828125 C 7.382812 -4.640625 7.023438 -4.472656 6.609375 -4.328125 C 6.191406 -4.191406 5.710938 -4.085938 5.171875 -4.015625 C 4.628906 -3.941406 4.023438 -3.941406 3.359375 -4.015625 C 3.503906 -3.710938 3.675781 -3.457031 3.875 -3.25 C 4.070312 -3.050781 4.269531 -2.890625 4.46875 -2.765625 C 4.664062 -2.648438 4.851562 -2.5625 5.03125 -2.5 C 5.207031 -2.445312 5.347656 -2.410156 5.453125 -2.390625 C 6.015625 -2.285156 6.535156 -2.320312 7.015625 -2.5 C 7.503906 -2.6875 7.832031 -2.984375 8 -3.390625 C 8.125 -3.710938 8.335938 -3.929688 8.640625 -4.046875 C 8.953125 -4.171875 9.257812 -4.171875 9.5625 -4.046875 C 9.882812 -3.910156 10.109375 -3.691406 10.234375 -3.390625 C 10.359375 -3.097656 10.351562 -2.789062 10.21875 -2.46875 C 9.832031 -1.488281 9.097656 -0.769531 8.015625 -0.3125 C 7.390625 -0.0390625 6.726562 0.09375 6.03125 0.09375 Z M 3.125 -6.515625 C 3.644531 -6.421875 4.109375 -6.378906 4.515625 -6.390625 C 4.929688 -6.410156 5.285156 -6.460938 5.578125 -6.546875 C 5.878906 -6.640625 6.132812 -6.742188 6.34375 -6.859375 C 6.550781 -6.984375 6.722656 -7.101562 6.859375 -7.21875 C 7.160156 -7.476562 7.359375 -7.734375 7.453125 -7.984375 C 7.554688 -8.234375 7.59375 -8.40625 7.5625 -8.5 C 7.53125 -8.789062 7.4375 -9.007812 7.28125 -9.15625 C 7.125 -9.300781 6.957031 -9.410156 6.78125 -9.484375 C 6.601562 -9.554688 6.429688 -9.59375 6.265625 -9.59375 C 6.109375 -9.59375 6 -9.59375 5.9375 -9.59375 C 5.1875 -9.539062 4.554688 -9.21875 4.046875 -8.625 C 3.554688 -8.09375 3.25 -7.390625 3.125 -6.515625 Z M 3.125 -6.515625 "/></g></g></g><g fill="#0097b2" fill-opacity="1"><g transform="translate(54.29746, 20.668062)"><g><path d="M 6.03125 0.09375 C 5.851562 0.09375 5.675781 0.0820312 5.5 0.0625 C 5.332031 0.0507812 5.160156 0.03125 4.984375 0 C 3.765625 -0.257812 2.757812 -0.84375 1.96875 -1.75 C 1.125 -2.726562 0.675781 -3.96875 0.625 -5.46875 L 0.625 -5.640625 C 0.625 -6.222656 0.671875 -6.753906 0.765625 -7.234375 C 0.867188 -7.722656 1 -8.148438 1.15625 -8.515625 C 1.320312 -8.890625 1.5 -9.222656 1.6875 -9.515625 C 1.875 -9.804688 2.0625 -10.050781 2.25 -10.25 C 2.71875 -10.757812 3.253906 -11.164062 3.859375 -11.46875 C 4.460938 -11.78125 5.101562 -11.960938 5.78125 -12.015625 C 6.789062 -12.097656 7.679688 -11.867188 8.453125 -11.328125 C 8.867188 -11.046875 9.207031 -10.6875 9.46875 -10.25 C 9.726562 -9.820312 9.898438 -9.351562 9.984375 -8.84375 C 10.054688 -8.226562 9.945312 -7.625 9.65625 -7.03125 C 9.53125 -6.71875 9.363281 -6.421875 9.15625 -6.140625 C 8.957031 -5.859375 8.722656 -5.601562 8.453125 -5.375 C 8.253906 -5.195312 8 -5.015625 7.6875 -4.828125 C 7.382812 -4.640625 7.023438 -4.472656 6.609375 -4.328125 C 6.191406 -4.191406 5.710938 -4.085938 5.171875 -4.015625 C 4.628906 -3.941406 4.023438 -3.941406 3.359375 -4.015625 C 3.503906 -3.710938 3.675781 -3.457031 3.875 -3.25 C 4.070312 -3.050781 4.269531 -2.890625 4.46875 -2.765625 C 4.664062 -2.648438 4.851562 -2.5625 5.03125 -2.5 C 5.207031 -2.445312 5.347656 -2.410156 5.453125 -2.390625 C 6.015625 -2.285156 6.535156 -2.320312 7.015625 -2.5 C 7.503906 -2.6875 7.832031 -2.984375 8 -3.390625 C 8.125 -3.710938 8.335938 -3.929688 8.640625 -4.046875 C 8.953125 -4.171875 9.257812 -4.171875 9.5625 -4.046875 C 9.882812 -3.910156 10.109375 -3.691406 10.234375 -3.390625 C 10.359375 -3.097656 10.351562 -2.789062 10.21875 -2.46875 C 9.832031 -1.488281 9.097656 -0.769531 8.015625 -0.3125 C 7.390625 -0.0390625 6.726562 0.09375 6.03125 0.09375 Z M 3.125 -6.515625 C 3.644531 -6.421875 4.109375 -6.378906 4.515625 -6.390625 C 4.929688 -6.410156 5.285156 -6.460938 5.578125 -6.546875 C 5.878906 -6.640625 6.132812 -6.742188 6.34375 -6.859375 C 6.550781 -6.984375 6.722656 -7.101562 6.859375 -7.21875 C 7.160156 -7.476562 7.359375 -7.734375 7.453125 -7.984375 C 7.554688 -8.234375 7.59375 -8.40625 7.5625 -8.5 C 7.53125 -8.789062 7.4375 -9.007812 7.28125 -9.15625 C 7.125 -9.300781 6.957031 -9.410156 6.78125 -9.484375 C 6.601562 -9.554688 6.429688 -9.59375 6.265625 -9.59375 C 6.109375 -9.59375 6 -9.59375 5.9375 -9.59375 C 5.1875 -9.539062 4.554688 -9.21875 4.046875 -8.625 C 3.554688 -8.09375 3.25 -7.390625 3.125 -6.515625 Z M 3.125 -6.515625 "/></g></g></g></svg>