<svg width="37" height="36" viewBox="0 0 37 36" fill="none" xmlns="http://www.w3.org/2000/svg">
<rect x="0.5" width="36" height="36" rx="8" fill="#FFE6DE"/>
<path d="M29.7031 26.441H12.317C11.6004 26.441 11.0197 25.8602 11.0197 25.1436C11.0197 24.4271 11.6004 23.8463 12.317 23.8463H29.7027C30.4192 23.8463 31 24.4271 31 25.1436C31 25.8602 30.4197 26.441 29.7031 26.441Z" fill="#FF784B"/>
<path d="M29.7031 18.2976H12.317C11.6004 18.2976 11.0197 17.7168 11.0197 17.0002C11.0197 16.2837 11.6004 15.7029 12.317 15.7029H29.7027C30.4192 15.7029 31 16.2837 31 17.0002C31.0004 17.7168 30.4197 18.2976 29.7031 18.2976Z" fill="#FF784B"/>
<path d="M29.7031 10.1542H12.317C11.6004 10.1542 11.0197 9.57338 11.0197 8.85682C11.0197 8.14025 11.6004 7.55948 12.317 7.55948H29.7027C30.4192 7.55948 31 8.14025 31 8.85682C31 9.57338 30.4197 10.1542 29.7031 10.1542Z" fill="#FF784B"/>
<path d="M6.74233 10.6995C7.70459 10.6995 8.48466 9.9194 8.48466 8.95714C8.48466 7.99488 7.70459 7.21481 6.74233 7.21481C5.78007 7.21481 5 7.99488 5 8.95714C5 9.9194 5.78007 10.6995 6.74233 10.6995Z" fill="#FF784B"/>
<path d="M6.74233 18.7426C7.70459 18.7426 8.48466 17.9625 8.48466 17.0002C8.48466 16.038 7.70459 15.2579 6.74233 15.2579C5.78007 15.2579 5 16.038 5 17.0002C5 17.9625 5.78007 18.7426 6.74233 18.7426Z" fill="#FF784B"/>
<path d="M6.74233 26.7856C7.70459 26.7856 8.48466 26.0056 8.48466 25.0433C8.48466 24.081 7.70459 23.301 6.74233 23.301C5.78007 23.301 5 24.081 5 25.0433C5 26.0056 5.78007 26.7856 6.74233 26.7856Z" fill="#FF784B"/>
</svg>
