<svg height="511pt" viewBox="-8 0 511 511.99994" width="511pt" xmlns="http://www.w3.org/2000/svg"><path d="m8.121094 348.183594c4.203125 0 7.617187-3.414063 7.617187-7.621094v-321.878906c0-1.898438 1.546875-3.445313 3.433594-3.445313h148.398437c4.207032 0 7.621094-3.414062 7.621094-7.617187 0-4.207032-3.414062-7.621094-7.621094-7.621094h-148.398437c-10.289063 0-18.671875 8.382812-18.671875 18.683594v321.878906c0 4.207031 3.402344 7.621094 7.621094 7.621094zm0 0"/><path d="m385.875 246.496094v-227.8125c0-10.300782-8.382812-18.683594-18.683594-18.683594h-169.140625c-4.207031 0-7.621093 3.414062-7.621093 7.621094 0 4.203125 3.414062 7.617187 7.621093 7.617187h169.140625c1.902344 0 3.445313 1.546875 3.445313 3.445313v225.832031c-77.683594-5.652344-143.644531 56.09375-143.644531 133.546875 0 51.484375 29.210937 96.269531 71.917968 118.671875h-279.738281c-1.886719 0-3.433594-1.546875-3.433594-3.445313v-122.25c0-4.214843-3.414062-7.617187-7.617187-7.617187-4.21875 0-7.621094 3.402344-7.621094 7.617187v122.25c0 10.300782 8.382812 18.683594 18.671875 18.683594 371.078125 0 349.035156.179688 351.71875-.367187 24.078125-1.765625 47.015625-9.933594 66.867187-23.875 3.445313-2.417969 4.277344-7.171875 1.859376-10.617188-2.417969-3.441406-7.171876-4.277343-10.613282-1.859375-79.0625 55.464844-186.773437-2.109375-186.773437-97.191406 0-75.414062 69.9375-131.992188 143.644531-116.011719 88.324219 18.976563 123.710938 126.296875 64.378906 194.105469-2.773437 3.167969-2.445312 7.984375.710938 10.757812 3.171875 2.765626 7.988281 2.449219 10.761718-.71875 21.332032-24.394531 33.078126-55.695312 33.078126-88.132812 0-65.296875-46.988282-119.832031-108.929688-131.566406zm0 0"/><path d="m360.902344 295.832031c-4.210938 0-7.621094 3.410157-7.621094 7.617188v74.914062l-41.878906 41.171875c-3 2.949219-3.042969 7.773438-.089844 10.773438 2.953125 3.007812 7.777344 3.042968 10.773438.09375l44.15625-43.414063c3.144531-3.089843 2.277343.949219 2.277343-83.539062 0-4.207031-3.410156-7.617188-7.617187-7.617188zm0 0"/><path d="m45.1875 110.621094h44.699219c4.210937 0 7.621093-3.414063 7.621093-7.621094 0-4.210938-3.410156-7.621094-7.621093-7.621094h-44.699219c-4.207031 0-7.621094 3.410156-7.621094 7.621094 0 4.207031 3.414063 7.621094 7.621094 7.621094zm0 0"/><path d="m321.523438 95.378906h-184.902344c-4.207032 0-7.621094 3.410156-7.621094 7.621094 0 4.207031 3.414062 7.621094 7.621094 7.621094h184.902344c4.207031 0 7.617187-3.414063 7.617187-7.621094 0-4.210938-3.410156-7.621094-7.617187-7.621094zm0 0"/><path d="m321.523438 145.609375h-184.902344c-4.207032 0-7.621094 3.410156-7.621094 7.617187 0 4.210938 3.414062 7.621094 7.621094 7.621094h184.902344c4.207031 0 7.617187-3.410156 7.617187-7.621094 0-4.207031-3.410156-7.617187-7.617187-7.617187zm0 0"/><path d="m45.1875 160.847656h44.699219c4.210937 0 7.621093-3.410156 7.621093-7.621094 0-4.207031-3.410156-7.617187-7.621093-7.617187h-44.699219c-4.207031 0-7.621094 3.410156-7.621094 7.617187 0 4.210938 3.414063 7.621094 7.621094 7.621094zm0 0"/><path d="m329.140625 203.457031c0-4.210937-3.410156-7.621093-7.617187-7.621093h-184.902344c-4.207032 0-7.621094 3.410156-7.621094 7.621093 0 4.207031 3.414062 7.617188 7.621094 7.617188h184.902344c4.207031 0 7.617187-3.410157 7.617187-7.617188zm0 0"/><path d="m45.1875 211.074219h44.699219c4.210937 0 7.621093-3.410157 7.621093-7.617188 0-4.210937-3.410156-7.621093-7.621093-7.621093h-44.699219c-4.207031 0-7.621094 3.410156-7.621094 7.621093 0 4.207031 3.414063 7.617188 7.621094 7.617188zm0 0"/><path d="m45.1875 261.304688h45.671875c4.207031 0 7.617187-3.410157 7.617187-7.621094 0-4.207032-3.410156-7.621094-7.617187-7.621094h-45.671875c-4.207031 0-7.621094 3.414062-7.621094 7.621094 0 4.210937 3.414063 7.621094 7.621094 7.621094zm0 0"/><path d="m224.453125 253.683594c0-4.207032-3.410156-7.621094-7.617187-7.621094h-79.246094c-4.207032 0-7.617188 3.414062-7.617188 7.621094 0 4.210937 3.410156 7.621094 7.617188 7.621094h79.246094c4.207031 0 7.617187-3.414063 7.617187-7.621094zm0 0"/><path d="m45.1875 361.757812h143.539062c4.210938 0 7.621094-3.410156 7.621094-7.617187 0-4.210937-3.410156-7.621094-7.621094-7.621094h-143.539062c-4.207031 0-7.621094 3.410157-7.621094 7.621094 0 4.207031 3.414063 7.617187 7.621094 7.617187zm0 0"/><path d="m45.1875 411.988281h147.605469c4.207031 0 7.617187-3.410156 7.617187-7.621093 0-4.207032-3.410156-7.621094-7.617187-7.621094h-147.605469c-4.207031 0-7.621094 3.414062-7.621094 7.621094 0 4.210937 3.414063 7.621093 7.621094 7.621093zm0 0"/></svg>