<svg width="32" height="32" viewBox="0 0 32 32" fill="none" xmlns="http://www.w3.org/2000/svg">
<defs>
<linearGradient id="paint0_linear_415_31515" x1="7.44995" y1="16.0002" x2="24.788" y2="16.0002" gradientUnits="userSpaceOnUse">
<stop stop-color="#00CAAD"/>
<stop offset="1" stop-color="#02ADBC"/>
</linearGradient>
</defs>
<path fill-rule="evenodd" clip-rule="evenodd" d="M7.44995 13.6564C7.44995 8.85969 11.3331 4.9502 16.119 4.9502C20.9049 4.9502 24.788 8.85969 24.788 13.6564C24.788 15.1911 24.3847 16.7011 23.6195 18.0242C23.442 18.3311 23.2438 18.6299 23.0301 18.913L17.4901 26.3612C17.1676 26.7947 16.6592 27.0502 16.119 27.0502C15.5787 27.0502 15.0703 26.7947 14.7479 26.3612L9.20797 18.9131C8.99412 18.6299 8.796 18.3311 8.61848 18.0241C7.85327 16.7011 7.44995 15.1911 7.44995 13.6564Z" fill="url(#paint0_linear_415_31515)"/>
</svg>
