<svg width="32" height="32" viewBox="0 0 32 32" fill="none" xmlns="http://www.w3.org/2000/svg">
<g clip-path="url(#clip0_414_31460)">
<path fill-rule="evenodd" clip-rule="evenodd" d="M15.5 7.9C11.5235 7.9 8.3 11.3026 8.3 15.5C8.3 17.1075 8.77182 18.5959 9.57724 19.8228C9.8438 20.2289 9.90806 20.771 9.69692 21.2505L8.88256 23.1H15.5C19.4765 23.1 22.7 19.6974 22.7 15.5C22.7 11.3026 19.4765 7.9 15.5 7.9ZM6.5 15.5C6.5 10.2533 10.5294 6 15.5 6C20.4705 6 24.5 10.2533 24.5 15.5C24.5 20.7467 20.4705 25 15.5 25H8.17543C7.15462 25 6.50887 23.8536 6.98065 22.9115L7.95958 20.6882C7.03659 19.1964 6.5 17.413 6.5 15.5Z" fill="#0097B2" stroke="#0097B2" stroke-width="0.15"/>
</g>
<defs>
<clipPath id="clip0_414_31460">
<rect width="32" height="32" fill="white"/>
</clipPath>
</defs>
</svg>
