<svg version="1.1" id="Capa_1" xmlns="http://www.w3.org/2000/svg" xmlns:xlink="http://www.w3.org/1999/xlink" x="0px" y="0px" viewBox="0 0 503.997 503.997" style="enable-background:new 0 0 503.997 503.997;" xml:space="preserve">
<g>
	
		<line style="fill:none;stroke:#000000;stroke-width:22;stroke-linecap:round;stroke-linejoin:round;stroke-miterlimit:10;" x1="252" y1="86.999" x2="252" y2="116.999"/>
	
		<line style="fill:none;stroke:#000000;stroke-width:22;stroke-linecap:round;stroke-linejoin:round;stroke-miterlimit:10;" x1="145.934" y1="100.933" x2="167.147" y2="122.146"/>
	
		<line style="fill:none;stroke:#000000;stroke-width:22;stroke-linecap:round;stroke-linejoin:round;stroke-miterlimit:10;" x1="336.853" y1="122.146" x2="358.066" y2="100.933"/>
	<g>
		<path style="fill:none;stroke:#33CCCC;stroke-width:22;stroke-linecap:round;stroke-linejoin:round;stroke-miterlimit:10;" d="&#10;&#9;&#9;&#9;M132,416.999c-7.939,0-15.571-3.149-21.211-8.789l-91-91c-11.719-11.719-11.719-30.703,0-42.422s30.703-11.719,42.422,0&#10;&#9;&#9;&#9;l67.768,67.768l128.979-154.761c10.591-12.715,29.487-14.443,42.246-3.838c12.729,10.605,14.443,29.517,3.838,42.246l-150,180&#10;&#9;&#9;&#9;c-5.391,6.475-13.257,10.386-21.68,10.767C132.908,416.984,132.454,416.999,132,416.999z"/>
	</g>
	<g>
		<path style="fill:none;stroke:#33CCCC;stroke-width:22;stroke-linecap:round;stroke-linejoin:round;stroke-miterlimit:10;" d="&#10;&#9;&#9;&#9;M254.398,286.975l55.58,55.58l129.979-155.761c10.591-12.715,29.487-14.443,42.246-3.838&#10;&#9;&#9;&#9;c12.729,10.605,14.443,29.517,3.838,42.246l-151,181c-5.391,6.475-13.257,10.386-21.68,10.767&#10;&#9;&#9;&#9;c-0.454,0.015-0.908,0.029-1.362,0.029c-7.939,0-15.571-3.149-21.211-8.789l-74.956-74.956"/>
	</g>
</g>
<g>
</g>
<g>
</g>
<g>
</g>
<g>
</g>
<g>
</g>
<g>
</g>
<g>
</g>
<g>
</g>
<g>
</g>
<g>
</g>
<g>
</g>
<g>
</g>
<g>
</g>
<g>
</g>
<g>
</g>
</svg>