<svg id="Layer_1" height="512" viewBox="0 0 64 64" width="512" xmlns="http://www.w3.org/2000/svg" data-name="Layer 1"><circle cx="32" cy="31" fill="#c6dcf8" r="30"/><circle cx="53" cy="54" fill="#6bb3a4" r="9"/><circle cx="32" cy="21" fill="#e6b273" r="4"/><path d="m24 41v-11.429a4.572 4.572 0 0 1 4.571-4.571h6.858a4.572 4.572 0 0 1 4.571 4.571v11.429z" fill="#5c97e6"/><circle cx="18" cy="23.5" fill="#e6b273" r="3.5"/><path d="m12 39v-8.4a3.6 3.6 0 0 1 3.6-3.6h4.8a3.6 3.6 0 0 1 3.6 3.6v8.4z" fill="#5287cc"/><path d="m58 53h-4v-4h-2v4h-4v2h4v4h2v-4h4z" fill="#f2f2f2"/><circle cx="46" cy="23.5" fill="#e6b273" r="3.5"/><path d="m40 39v-8.4a3.6 3.6 0 0 1 3.6-3.6h4.8a3.6 3.6 0 0 1 3.6 3.6v8.4z" fill="#5287cc"/></svg>