<svg fill="none" height="32" viewBox="0 0 32 32" width="32" xmlns="http://www.w3.org/2000/svg"><path d="m2 5.73459c0-.9953.73186-1.83914 1.71716-1.9799l12.28284-1.75469v28l-12.28284-1.7547c-.9853-.1407-1.71716-.9846-1.71716-1.9799z" fill="#42a5f5"/><g clip-rule="evenodd" fill-rule="evenodd"><path d="m17 2c0-.28989-.1258-.56552-.3448-.75546-.219-.18993-.5096-.275487-.7966-.23449l-12.28286 1.75469c-1.47795.21114-2.57574 1.4769-2.57574 2.96985v20.53081c0 1.493 1.09779 2.7587 2.57574 2.9699l12.28286 1.7546c.287.041.5776-.0445.7966-.2344.219-.19.3448-.4656.3448-.7555v-1h7c1.6569 0 3-1.3431 3-3v-2c0-.5523-.4477-1-1-1s-1 .4477-1 1v2c0 .5523-.4477 1-1 1h-7v-22h7c.5523 0 1 .44772 1 1v2c0 .55228.4477 1 1 1s1-.44772 1-1v-2c0-1.65685-1.3431-3-3-3h-7zm-2 2v-.84699l-11.14142 1.59163c-.49265.07038-.85858.4923-.85858.98995v20.53081c0 .4977.36593.9196.85858.99l11.14142 1.5916v-.847z" fill="#1976d2"/><path d="m26.7071 11.2929c-.3905-.3905-1.0237-.3905-1.4142 0s-.3905 1.0237 0 1.4142l2.2929 2.2929h-7.5858c-.5523 0-1 .4477-1 1s.4477 1 1 1h7.5858l-2.2929 2.2929c-.3905.3905-.3905 1.0237 0 1.4142s1.0237.3905 1.4142 0l3.998-3.998c.1821-.1811.2949-.4319.2949-.7091 0-.2641-.1024-.5043-.2696-.683-.0076-.0082-.0154-.0162-.0233-.0241z" fill="#1976d2"/><path d="m13 14c.5523 0 1 .4477 1 1v2c0 .5523-.4477 1-1 1s-1-.4477-1-1v-2c0-.5523.4477-1 1-1z" fill="#e3f2fd"/></g></svg>