<svg width="33" height="32" viewBox="0 0 33 32" fill="none" xmlns="http://www.w3.org/2000/svg">
<defs>
<linearGradient id="paint0_linear_415_31492" x1="13" y1="24.5534" x2="19.9806" y2="24.5534" gradientUnits="userSpaceOnUse">
<stop stop-color="#00CAAD"/>
<stop offset="1" stop-color="#02ADBC"/>
</linearGradient>
<linearGradient id="paint1_linear_415_31492" x1="7" y1="14.25" x2="25.3043" y2="14.25" gradientUnits="userSpaceOnUse">
<stop stop-color="#00CAAD"/>
<stop offset="1" stop-color="#02ADBC"/>
</linearGradient>
</defs>
<path d="M16.4903 25.9998C18.2108 25.9998 19.65 24.7549 19.9806 23.1069H13C13.3306 24.7549 14.7698 25.9998 16.4903 25.9998Z" fill="url(#paint0_linear_415_31492)"/>
<path fill-rule="evenodd" clip-rule="evenodd" d="M20.6274 22.3637C18.5 22.3637 18.6013 22.3637 16.1521 22.3637C13.703 22.3637 14 22.3637 11.6769 22.3637H9.72729C8.22105 22.3637 7 21.1426 7 19.6364C7 19.0174 7.21052 18.4169 7.59697 17.9335C8.4665 16.8457 8.87938 15.8952 8.87938 15.0909V13.2727C8.87938 9.25611 12.1355 6 16.1521 6C20.1687 6 23.4248 9.25611 23.4248 13.2727V15.0909C23.4248 15.8952 23.8377 16.8457 24.7073 17.9335C25.6477 19.11 25.4564 20.8262 24.2798 21.7667C23.7964 22.1531 23.1959 22.3637 22.577 22.3637H20.6274ZM16.1225 22.5C14.7018 22.5 15 22.5 13.5 22.5H18.7449C17.5 22.5 17.5432 22.5 16.1225 22.5Z" fill="url(#paint1_linear_415_31492)"/>
</svg>
