<svg id="Layer_1" height="512" viewBox="0 0 512 512" width="512" xmlns="http://www.w3.org/2000/svg" data-name="Layer 1"><path d="m392.252 105.087-.04-.077c-31.805-59.344-95.012-96.87-164.942-97.933h-.162-.161c-69.935 1.063-133.137 38.589-164.983 98.01a194.654 194.654 0 0 0 -22 110.058c3.041 33.113 14.316 68.322 33.512 104.647 34.331 64.968 88.44 124.255 136.462 174.725l.245.249c3.571 3.515 9.165 8.148 16.738 8.147h.369c7.571 0 13.166-4.632 16.737-8.147l.245-.249c48.028-50.47 102.135-109.757 136.466-174.725 19.2-36.325 30.471-71.534 33.511-104.647a194.645 194.645 0 0 0 -21.997-110.058z" fill="#74d7ed"/><circle cx="227.108" cy="194.667" fill="#d1f2f1" r="93.632"/><circle cx="377.608" cy="410.617" fill="#d1f2f1" r="92.5"/><g fill="#0274d1"><path d="m255.794 459.181c-9.948 10.785-19.688 21.065-27.088 28.844a18.307 18.307 0 0 1 -1.923 1.668 18.307 18.307 0 0 1 -1.923-1.668c-48.541-51.025-103.154-110.845-137.26-175.393-39.679-75.081-43.56-140.891-11.911-201.112 29.046-54.196 86.929-88.486 151.094-89.52 64.165 1.031 122.048 35.321 151.053 89.438 25.383 48.3 27.914 99.618 7.737 156.893a11 11 0 1 0 20.75 7.309c22.013-62.483 18.98-121.173-9.055-174.515-32.843-61.277-98.105-100.025-170.318-101.125h-.167-.167c-72.216 1.1-137.475 39.848-170.36 101.206a201 201 0 0 0 -22.714 113.646c3.14 34.193 14.782 70.549 34.6 108.059 35.45 67.085 91.323 128.3 140.91 180.42l.254.257c3.694 3.63 9.468 8.412 17.286 8.412h.382c7.817 0 13.6-4.782 17.283-8.412l.253-.257c7.471-7.853 17.343-18.271 27.455-29.233a11 11 0 1 0 -16.171-14.917z"/><path d="m124.712 196.274a102.071 102.071 0 1 0 102.071-102.074 102.187 102.187 0 0 0 -102.071 102.074zm182.142 0a80.071 80.071 0 1 1 -80.071-80.074 80.162 80.162 0 0 1 80.071 80.074z"/><path d="m377.345 307.794a102 102 0 1 0 102 102 102.114 102.114 0 0 0 -102-102zm0 182a80 80 0 1 1 80-80 80.09 80.09 0 0 1 -80 80z"/><path d="m418.714 398.794h-30.369v-30.369a11 11 0 1 0 -22 0v30.369h-30.368a11 11 0 0 0 0 22h30.368v30.368a11 11 0 1 0 22 0v-30.368h30.369a11 11 0 1 0 0-22z"/></g></svg>