<svg id="Layer_1" enable-background="new 0 0 512 512" viewBox="0 0 512 512" xmlns="http://www.w3.org/2000/svg" xmlns:xlink="http://www.w3.org/1999/xlink"><linearGradient id="lg1"><stop offset="0" stop-color="#01f0fe"/><stop offset="1" stop-color="#4dadfe"/></linearGradient><linearGradient id="SVGID_1_" gradientTransform="matrix(1 0 0 -1 -.013 513.141)" gradientUnits="userSpaceOnUse" x1="160.168" x2="160.168" xlink:href="#lg1" y1="514.86" y2="5.86"/><linearGradient id="SVGID_00000048470326851303239750000009356537908956970685_" gradientTransform="matrix(1 0 0 -1 0 513.14)" gradientUnits="userSpaceOnUse" x1="160.155" x2="160.155" xlink:href="#lg1" y1="514.86" y2="5.86"/><linearGradient id="SVGID_00000179619064306361897500000002139293150841688193_" gradientTransform="matrix(1 0 0 -1 0 513.14)" gradientUnits="userSpaceOnUse" x1="385.352" x2="385.352" xlink:href="#lg1" y1="514.86" y2="5.86"/><linearGradient id="SVGID_00000093877410760032063750000003000277579138894259_" gradientTransform="matrix(1 0 0 -1 0 513.14)" gradientUnits="userSpaceOnUse" x1="448.855" x2="448.855" xlink:href="#lg1" y1="514.86" y2="5.86"/><g id="Layer_2_00000132804997741185299570000006375364554056699281_"><g id="stroke_copy_8"><g id="_122"><circle cx="160.2" cy="147.4" fill="url(#SVGID_1_)" r="77.9"/><path d="m320.3 424.4c0 10-8.1 18.1-18 18.1h-284.2c-10 0-18.1-8.1-18.1-18.1 0-88.4 71.8-160.2 160.2-160.2s160.1 71.9 160.1 160.2z" fill="url(#SVGID_00000048470326851303239750000009356537908956970685_)"/><path d="m403.6 241.4v-82.3l14 14c7.1 7.1 18.5 7.1 25.6 0s7.1-18.5 0-25.6l-44.9-44.9c-7.1-7.1-18.5-7.1-25.6 0l-45.2 45.4c-7.1 7.1-7.1 18.5 0 25.6s18.5 7.1 25.6 0l14.4-14.4v82.3c0 10 8.1 18.1 18.1 18.1s18-8.2 18-18.2z" fill="url(#SVGID_00000179619064306361897500000002139293150841688193_)"/><path d="m506.7 338.8c-7.1-7.1-18.5-7.1-25.6 0l-14 14v-82.2c-.2-10-8.5-17.9-18.5-17.6-9.7.2-17.4 8-17.6 17.6v82.3l-14.4-14.4c-7.1-7.1-18.5-7.1-25.6 0s-7.1 18.5 0 25.6l45.2 45.2c7 7.1 18.5 7.1 25.5 0l44.9-44.9c7.2-7.1 7.2-18.5.1-25.6z" fill="url(#SVGID_00000093877410760032063750000003000277579138894259_)"/></g></g></g></svg>