<svg width="32" height="32" viewBox="0 0 32 32" fill="none" xmlns="http://www.w3.org/2000/svg">
<path fill-rule="evenodd" clip-rule="evenodd" d="M20.1274 22.3637C19.773 24.5777 18.1013 26 15.6521 26C13.203 26 11.5312 24.5777 11.1769 22.3637H9.22729C7.72105 22.3637 6.5 21.1426 6.5 19.6364C6.5 19.0174 6.71052 18.4169 7.09697 17.9335C7.9665 16.8457 8.37938 15.8952 8.37938 15.0909V13.2727C8.37938 9.25611 11.6355 6 15.6521 6C19.6687 6 22.9248 9.25611 22.9248 13.2727V15.0909C22.9248 15.8952 23.3377 16.8457 24.2073 17.9335C25.1477 19.11 24.9564 20.8262 23.7798 21.7667C23.2964 22.1531 22.6959 22.3637 22.077 22.3637H20.1274ZM8.3125 19.7499C8.3125 20.252 8.71952 20.6591 9.22161 20.6591L22.0713 20.659C22.2776 20.659 22.4778 20.5889 22.6389 20.46C23.0311 20.1466 23.0949 19.5745 22.7814 19.1823C21.6757 17.7991 21.101 16.4761 21.101 15.2045V13.3863C21.101 10.3738 18.6589 7.93176 15.6464 7.93176C12.634 7.93176 10.1919 10.3738 10.1919 13.3863V15.2045C10.1919 16.4761 9.61716 17.7991 8.51149 19.1823C8.38267 19.3435 8.3125 19.5436 8.3125 19.7499ZM15.6225 24.3182C14.2018 24.3182 13.2945 23.6664 13 22.5H18.2449C17.9504 23.6664 17.0432 24.3182 15.6225 24.3182Z" fill="#0097B2"/>
</svg>
