<svg id="Capa_1" enable-background="new 0 0 512 512" height="512" viewBox="0 0 512 512" width="512" xmlns="http://www.w3.org/2000/svg"><g><g><circle cx="256" cy="256" fill="#fe646f" r="256"/></g><g><path d="m302.935 4.308c78.84 39.253 133.017 120.638 133.017 214.689 0 132.382-107.317 239.699-239.699 239.699-54.348 0-104.462-18.098-144.67-48.582 46.729 61.883 120.898 101.886 204.417 101.886 141.385 0 256-114.615 256-256 0-125.351-90.099-229.645-209.065-251.692z" fill="#fd4755"/></g><g><circle cx="256" cy="256" fill="#fe99a0" r="219.625"/></g><g><circle cx="256" cy="256" fill="#f3f0f3" r="171.082"/></g><g><circle cx="256" cy="256" fill="#f3f0f3" r="171.082"/></g><g><path d="m396.448 87.157c24.96 37.825 39.503 83.131 39.503 131.84 0 132.382-107.317 239.699-239.699 239.699-9.812 0-19.482-.604-28.986-1.75 27.136 12.001 57.153 18.679 88.733 18.679 121.296 0 219.625-98.329 219.625-219.625.001-67.877-30.798-128.556-79.176-168.843z" fill="#fd8087"/></g><path d="m294.023 260.472c-2.429-2.444-2.423-6.392.014-8.828l41.686-41.686c5.23-5.23 5.23-13.71 0-18.94l-14.549-14.548c-5.219-5.219-13.676-5.231-18.911-.029l-41.725 41.47c-2.449 2.434-6.407 2.422-8.841-.027l-41.324-41.578c-5.225-5.257-13.727-5.27-18.968-.029l-14.934 14.934c-5.23 5.23-5.23 13.709 0 18.939l41.363 41.363c2.447 2.447 2.441 6.416-.014 8.855l-41.513 41.259c-5.258 5.225-5.27 13.727-.029 18.969l14.933 14.933c5.23 5.23 13.71 5.23 18.94 0l41.428-41.428c2.441-2.441 6.4-2.441 8.841 0l41.621 41.621c5.23 5.23 13.71 5.23 18.94 0l14.548-14.548c5.218-5.219 5.231-13.676.029-18.91z" fill="#fd8087"/></g></svg>