<svg id="Icons" height="512" viewBox="0 0 60 60" width="512" xmlns="http://www.w3.org/2000/svg"><path d="m43.84 59h-41.68a1.155 1.155 0 0 1 -1.11-1.48c.35-1.21.71-2.41 1.06-3.61a11.791 11.791 0 0 1 1.64-3.82 9.307 9.307 0 0 1 5.89-3.75l7.36-1.34h12l7.36 1.34a9.307 9.307 0 0 1 5.89 3.75 11.791 11.791 0 0 1 1.64 3.82c.35 1.2.71 2.4 1.06 3.61a1.155 1.155 0 0 1 -1.11 1.48z" fill="#2fa8cc"/><path d="m7.8 23.433c-2.8-3.177-2.8-6.133-2.8-8.475a14.283 14.283 0 0 1 14.4-13.958c12.456 0 21.6 5.816 21.6 15.121a12.543 12.543 0 0 1 -2.834 7.3z" fill="#cb8252"/><path d="m36 23h.53a3.437 3.437 0 0 1 2.45 1.03 3.5 3.5 0 0 1 -2.45 5.97h-27.06a3.5 3.5 0 0 1 -2.45-5.97 3.437 3.437 0 0 1 2.45-1.03z" fill="#f9c795"/><path d="m29 45s-1.37 3-6 3-6-3-6-3a4.011 4.011 0 0 0 2-3.38v-2.25h8v2.25a4.011 4.011 0 0 0 2 3.38z" fill="#fdd7ad"/><path d="m27 39.37v2.09a15.085 15.085 0 0 1 -8 0v-2.09z" fill="#f9c795"/><path d="m36 20.9v6.1a13 13 0 0 1 -13 13 13 13 0 0 1 -13-13v-7.029a2.991 2.991 0 0 1 1.623-2.664 12.6 12.6 0 0 0 5.468-5.307s5.072 5.15 16.156 5.907a2.983 2.983 0 0 1 2.753 2.993z" fill="#fdd7ad"/><path d="m11 55v4h-2v-4a1 1 0 0 1 2 0z" fill="#2980ba"/><circle cx="46" cy="46" fill="#e64c3c" r="13"/><path d="m52 44h-12a2 2 0 0 0 0 4h12a2 2 0 0 0 0-4z" fill="#ecf0f1"/></svg>