<svg width="20" height="20" viewBox="0 0 20 20" fill="none" xmlns="http://www.w3.org/2000/svg">
<path fill-rule="evenodd" clip-rule="evenodd" d="M6.83341 6.00016V5.3335C6.83341 4.22893 7.72885 3.3335 8.83342 3.3335H11.5001C12.6047 3.3335 13.5001 4.22893 13.5001 5.3335V6.00016H15.5001C15.8683 6.00016 16.1667 6.29864 16.1667 6.66683C16.1667 7.03502 15.8683 7.3335 15.5001 7.3335V14.6668C15.5001 15.7714 14.6047 16.6668 13.5001 16.6668H6.83341C5.72885 16.6668 4.83341 15.7714 4.83341 14.6668V7.3335C4.46522 7.3335 4.16675 7.03502 4.16675 6.66683C4.16675 6.29864 4.46522 6.00016 4.83341 6.00016H6.83341ZM8.16675 6.00016H12.1667V5.3335C12.1667 4.96531 11.8683 4.66683 11.5001 4.66683H8.83342C8.46523 4.66683 8.16675 4.96531 8.16675 5.3335V6.00016ZM6.16675 7.3335H14.1667V14.6668C14.1667 15.035 13.8683 15.3335 13.5001 15.3335H6.83342C6.46523 15.3335 6.16675 15.035 6.16675 14.6668V7.3335ZM8.16675 9.3335C8.16675 8.96531 8.46523 8.66683 8.83342 8.66683C9.2016 8.66683 9.50008 8.96531 9.50008 9.3335V13.3335C9.50008 13.7017 9.2016 14.0002 8.83342 14.0002C8.46523 14.0002 8.16675 13.7017 8.16675 13.3335V9.3335ZM11.5001 8.66683C11.1319 8.66683 10.8334 8.96531 10.8334 9.3335V13.3335C10.8334 13.7017 11.1319 14.0002 11.5001 14.0002C11.8683 14.0002 12.1667 13.7017 12.1667 13.3335V9.3335C12.1667 8.96531 11.8683 8.66683 11.5001 8.66683Z" fill="#EC3505"/>
</svg>
