<svg width="37" height="36" viewBox="0 0 37 36" fill="none" xmlns="http://www.w3.org/2000/svg">
<rect x="0.5" width="36" height="36" rx="8" fill="#CCE0FE"/>
<g clip-path="url(#clip0_428_35497)">
<path d="M29.4751 7.12941C29.4751 5.4 28.0751 4 26.3457 4H11.1928C9.46335 4 8.06335 5.4 8.06335 7.12941V27.2235C8.06335 28.9529 9.46335 30.3529 11.1928 30.3529H26.3457C28.0751 30.3529 29.4751 28.9529 29.4751 27.2235V18.7919V7.12941ZM27.8281 27.2235C27.8281 28.0471 27.1692 28.7059 26.3457 28.7059H11.1928C10.3692 28.7059 9.71041 28.0471 9.71041 27.2235V7.12941C9.71041 6.30588 10.3692 5.64706 11.1928 5.64706H26.3457C27.1692 5.64706 27.8281 6.30588 27.8281 7.12941V18.7919V27.2235Z" fill="#7AADFA"/>
<path d="M25.3575 12.2941H12.181C11.6869 12.2941 11.3575 12.6235 11.3575 13.1177C11.3575 13.6118 11.6869 13.9412 12.181 13.9412H25.3575C25.8516 13.9412 26.181 13.6118 26.181 13.1177C26.181 12.6235 25.8516 12.2941 25.3575 12.2941Z" fill="#7AADFA"/>
<path d="M25.3575 15.9412H12.181C11.6869 15.9412 11.3575 16.2706 11.3575 16.7647C11.3575 17.2588 11.6869 17.5883 12.181 17.5883H25.3575C25.8516 17.5883 26.181 17.2588 26.181 16.7647C26.181 16.2706 25.8516 15.9412 25.3575 15.9412Z" fill="#7AADFA"/>
<path d="M25.3575 19.5883H12.181C11.6869 19.5883 11.3575 19.9177 11.3575 20.4118C11.3575 20.9059 11.6869 21.2353 12.181 21.2353H25.3575C25.8516 21.2353 26.181 20.9059 26.181 20.4118C26.181 19.9177 25.8516 19.5883 25.3575 19.5883Z" fill="#7AADFA"/>
</g>
<defs>
<clipPath id="clip0_428_35497">
<rect width="22" height="27" fill="white" transform="translate(8 4)"/>
</clipPath>
</defs>
</svg>
